# xmcd
#
# Track frame offsets:
# 150
# 11648
# 20813
# 28715
# 34717
# 44887
# 55284
# 65154
# 79388
# 89898
# 102591
# 115571
#
# Disc length: 1743 seconds
#
#
# Revision: 0
# Processed by: cddbd v1.5.2PL0 Copyright (c) Steve Scherf et al.
# Submitted via: FreeRIP 2.942 
#
DISCID=af06cd0c
DTITLE=Various Artist - Country Greats Disc One
DYEAR=1900
DGENRE=Country
TTITLE0=Patsy Cline - I've Loved and Lost Again
TTITLE1=Frankie Laine - Rawhide
TTITLE2=George Jones - Jambalaya
TTITLE3=Jim Reeves - Have I Told You Lately That I Love You
TTITLE4=Carl Perkins - Daddy Sang Bass
TTITLE5=Ferlin Husky - Wing of a Dove
TTITLE6=Guy Mitchell - Rock A Billy
TTITLE7=George Jones - Open Pit Mine
TTITLE8=Rick Nelson - Travelin' Man
TTITLE9=Faron Young - It's Four in the Morning
TTITLE10=Lynn Anderson - I Never Promised You A Rose Garden
TTITLE11=Federation - Duelling Banjo's
EXTD=
EXTT0=
EXTT1=
EXTT2=
EXTT3=
EXTT4=
EXTT5=
EXTT6=
EXTT7=
EXTT8=
EXTT9=
EXTT10=
EXTT11=
PLAYORDER=
